<svg width="72" height="72" viewBox="0 0 72 72" fill="none" xmlns="http://www.w3.org/2000/svg">
<g clip-path="url(#clip0_176_3152)">
<path d="M7.40461 50.6311C12.6934 51.1153 18.1672 52.466 23.6178 54.6829V60.3844L1.26562 56.4085V9.13098L7.40461 10.222V50.6311ZM35.9865 61.3851V62.5841L31.4941 61.7848V58.5117C33.0007 59.3665 34.4957 60.2897 35.9776 61.2801V61.3968C35.9806 61.3924 35.9835 61.3895 35.9865 61.3851Z" stroke="white" stroke-width="2" stroke-miterlimit="10" stroke-linecap="round" stroke-linejoin="round"/>
<path d="M36.1546 16.5528V61.3971L36.0705 61.3824L36.0221 61.3739L35.9969 61.3697L35.9864 61.3676L35.978 61.3655V16.7632C35.9801 16.759 35.9843 16.7547 35.9864 16.7505V16.5233L35.9991 16.5254L36.0223 16.5296L36.0706 16.538L36.1274 16.5486L36.1546 16.5528ZM11.7789 45.9215C15.2445 45.8471 19.4218 47.03 23.618 49.4702V54.683C18.1674 52.466 12.6934 51.1153 7.40479 50.6312V5.78796C8.85027 5.91917 10.3102 6.11759 11.7789 6.38014V45.9215ZM35.9777 61.1298V61.28C34.4958 60.2896 33.0008 59.3664 31.4941 58.5117V55.6719C33.0708 57.2893 34.5804 59.1096 35.9777 61.1298Z" stroke="white" stroke-width="2" stroke-miterlimit="10" stroke-linecap="round" stroke-linejoin="round"/>
<path d="M36.1544 16.5529V61.3972C36.1418 61.3888 36.1312 61.3805 36.1187 61.374C36.102 61.3613 36.0872 61.3508 36.0703 61.3402C36.0577 61.3318 36.0452 61.3235 36.0324 61.317C36.0176 61.3044 36.0009 61.2938 35.9861 61.2855C35.984 61.2834 35.9798 61.2813 35.9777 61.2792V16.7632C35.9798 16.759 35.984 16.7548 35.9861 16.7506V16.5086C35.9587 16.4664 35.9314 16.4245 35.8999 16.3844C35.9294 16.4011 35.9566 16.4201 35.9861 16.4411C36.0134 16.4578 36.0428 16.4768 36.0702 16.4958C36.0869 16.5063 36.1017 16.5167 36.1186 16.5295C36.1228 16.5316 36.1291 16.5359 36.1333 16.538C36.1398 16.5446 36.1482 16.5488 36.1544 16.5529Z" stroke="white" stroke-width="2" stroke-miterlimit="10" stroke-linecap="round" stroke-linejoin="round"/>
<path d="M35.9863 16.5082V16.7504C35.9833 16.7548 35.9805 16.7591 35.9776 16.7635V61.1297C34.5803 59.1096 33.0707 57.2893 31.494 55.6717C28.9809 53.093 26.2957 51.0248 23.6179 49.47C19.4216 47.0299 15.2444 45.847 11.7788 45.9214V1.28685C18.5216 1.14538 27.9614 5.76027 34.996 15.13C35.3023 15.5383 35.6056 15.957 35.9004 16.3843C35.9307 16.4251 35.9586 16.4661 35.9863 16.5082Z" stroke="white" stroke-width="2" stroke-miterlimit="10" stroke-linecap="round" stroke-linejoin="round"/>
<path d="M36.1632 16.7632V61.397C36.1611 61.3928 36.1569 61.3886 36.1548 61.3844C36.1506 61.3802 36.1485 61.3738 36.1442 61.3696C36.1316 61.3529 36.121 61.3339 36.1085 61.317C36.0959 61.298 36.0834 61.2813 36.0706 61.2644C36.0431 61.2224 36.0159 61.1824 35.9865 61.1424C35.9865 61.1381 35.9822 61.1339 35.978 61.1297V16.7632C35.9801 16.759 35.9844 16.7548 35.9865 16.7506V16.5085C35.9928 16.5149 35.997 16.5191 35.9991 16.5253C36.0033 16.5295 36.0055 16.5337 36.0076 16.5379C36.0118 16.5422 36.0139 16.5443 36.0139 16.5485C36.0348 16.5759 36.0538 16.6032 36.0706 16.6306C36.1001 16.6705 36.1272 16.7105 36.1547 16.7506C36.1568 16.7548 36.161 16.759 36.1632 16.7632Z" stroke="white" stroke-width="2" stroke-miterlimit="10" stroke-linecap="round" stroke-linejoin="round"/>
<path d="M70.8752 9.13037V56.4089L36.1548 62.5838V61.3845C36.1569 61.3887 36.1611 61.3929 36.1632 61.3972V61.2793C45.5003 55.0371 55.4075 51.4858 64.7361 50.6316V10.2222L70.8752 9.13037Z" stroke="white" stroke-width="2" stroke-miterlimit="10" stroke-linecap="round" stroke-linejoin="round"/>
<path d="M36.163 16.7632V61.3655L36.1545 61.3676L36.144 61.3698L36.1188 61.374L36.0704 61.3824L35.9863 61.3972V16.5528L36.0136 16.5486L36.0703 16.5381L36.1187 16.5296L36.1419 16.5254L36.1545 16.5233V16.7506C36.1565 16.7548 36.1607 16.759 36.163 16.7632Z" stroke="white" stroke-width="2" stroke-miterlimit="10" stroke-linecap="round" stroke-linejoin="round"/>
<path d="M64.736 5.78723V50.6316C55.4073 51.4857 45.5002 55.0371 36.1631 61.2793V61.1299C43.2784 50.8398 53.2992 45.7716 60.362 45.9209V6.38053C61.8305 6.11756 63.2906 5.9197 64.736 5.78723Z" stroke="white" stroke-width="3" stroke-miterlimit="10" stroke-linecap="round" stroke-linejoin="round"/>
<path d="M36.1547 16.7506C36.1568 16.7548 36.161 16.759 36.1631 16.7632V61.2792C36.161 61.2813 36.1568 61.2834 36.1547 61.2855C36.1399 61.294 36.1232 61.3045 36.1084 61.317C36.0957 61.3234 36.0832 61.3318 36.0704 61.3402C36.0537 61.3508 36.0389 61.3612 36.022 61.374C36.0094 61.3803 35.9988 61.3887 35.9863 61.3972V16.5528C35.9927 16.5486 36.0011 16.5444 36.0073 16.5381C36.0115 16.536 36.0178 16.5318 36.022 16.5296C36.0388 16.517 36.0535 16.5064 36.0704 16.4959C36.0978 16.4769 36.1271 16.4579 36.1545 16.4412C36.184 16.4202 36.2113 16.4013 36.2407 16.3845C36.2092 16.4245 36.1818 16.4665 36.1545 16.5087V16.7506H36.1547Z" stroke="white" stroke-width="2" stroke-miterlimit="10" stroke-linecap="round" stroke-linejoin="round"/>
<path d="M60.3621 1.28695V45.9208C53.2993 45.7714 43.2785 50.8395 36.1632 61.1298V16.7631C36.1611 16.7589 36.1569 16.7547 36.1547 16.7505V16.5085C36.1822 16.4663 36.2094 16.4244 36.2409 16.3843C36.5377 15.9572 36.8385 15.5384 37.1477 15.1304C44.1811 5.75995 53.6192 1.14604 60.3621 1.28695ZM31.4943 55.6718V70.8568L27.5562 66.9187L23.6182 70.8568V49.47C26.2961 51.0249 28.9812 53.0931 31.4943 55.6718Z" stroke="white" stroke-width="2" stroke-miterlimit="10" stroke-linecap="round" stroke-linejoin="round"/>
</g>
<defs>
<clipPath id="clip0_176_3152">
<rect width="72" height="72" fill="white"/>
</clipPath>
</defs>
</svg>
