<svg width="1034" height="73" viewBox="0 0 1034 73" fill="none" xmlns="http://www.w3.org/2000/svg">
<rect x="0.5" y="0.5" width="1033" height="72" rx="11.5" fill="white" stroke="#696969"/>
<path d="M993.94 42.94C992.231 44.243 990.149 44.9649 988 45C981 45 977 37 977 37C978.244 34.6819 979.969 32.6566 982.06 31.06M985.9 29.24C986.588 29.0789 987.293 28.9984 988 29C995 29 999 37 999 37C998.393 38.1356 997.669 39.2048 996.84 40.19M990.12 39.12C989.845 39.4148 989.514 39.6512 989.146 39.8151C988.778 39.9791 988.381 40.0673 987.978 40.0744C987.575 40.0815 987.175 40.0074 986.802 39.8565C986.428 39.7056 986.089 39.4811 985.804 39.1962C985.519 38.9113 985.294 38.572 985.144 38.1984C984.993 37.8249 984.919 37.4247 984.926 37.0219C984.933 36.6191 985.021 36.2219 985.185 35.8539C985.349 35.4859 985.585 35.1547 985.88 34.88" stroke="#696969" stroke-width="2" stroke-linecap="round" stroke-linejoin="round"/>
<path d="M977 26L999 48" stroke="#696969" stroke-width="2" stroke-linecap="round" stroke-linejoin="round"/>
</svg>
